<svg width="76" height="62" viewBox="0 0 76 62" fill="none" xmlns="http://www.w3.org/2000/svg">
<path d="M-4 58.4569C-4 58.4569 12.464 55.2583 31.7564 43.4597C51.0488 31.6612 55.8799 22.4607 55.8799 22.4607M13.0274 53.8778C13.0274 53.8778 15.1263 55.5167 16.8087 56.1876C18.4911 56.8586 21.9075 57.9665 22.7612 58.353C23.6136 58.7392 26.7888 61.5925 27.1183 60.8889C27.4478 60.1853 25.7444 57.9541 24.5085 57.4816C23.2726 57.0091 22.4126 56.8638 20.8244 56.1658C19.2363 55.4679 16.7456 53.7379 16.2874 53.6377C15.5387 53.4736 15.1823 54.215 15.9701 54.4903C16.7579 54.7655 18.2853 54.2934 19.2238 54.2794C20.1622 54.2655 30.2634 55.3732 31.5293 55.7063C32.7951 56.0393 35.8789 55.3722 31.8683 54.1291C27.8577 52.8861 21.7206 53.3749 18.2989 52.7775C14.8776 52.1787 14.8776 52.1787 14.8776 52.1787M11.5799 53.5419C11.5962 53.4973 18.3678 49.147 21.9402 44.5549C25.5126 39.9628 21.072 43.8245 20.298 44.526C19.5227 45.2273 17.2684 47.005 15.2153 48.6818C14.0386 49.6421 12.861 50.3318 11.9855 50.8263M11.9855 50.8263C11.6286 52.0003 11.6736 52.6697 10.9569 52.7307C10.1244 52.8006 10.2067 52.075 10.6561 51.6426C10.8486 51.4578 11.3338 51.1957 11.9855 50.8263ZM11.9855 50.8263C12.2451 49.9739 12.5126 48.9479 12.7906 47.9915C13.0436 47.1201 13.3053 46.3077 13.5757 45.7355C14.5543 43.6707 19.4605 38.2604 20.395 36.8187C21.3284 35.3753 25.2405 30.0322 24.6823 29.5177C24.1242 29.0032 22.819 31.1407 22.3084 31.8518C21.8771 32.455 14.8677 41.5835 11.7738 46.618M11.7738 46.618C11.2086 47.539 10.7738 48.3213 10.5345 48.8917C9.54704 51.241 9.11948 53.342 8.93897 54.5557M11.7738 46.618C12.0351 45.864 12.4549 44.8211 13.1306 43.4483C14.7919 40.0782 19.7696 33.7117 20.2068 33.1303C20.6444 32.5475 22.5838 28.7063 19.2767 32.4824C15.9692 36.2599 13.159 40.8291 12.4456 42.0779C11.7306 43.3278 10.7975 44.7697 9.98921 47.7003C9.18127 50.6295 9.63203 51.1198 9.63203 51.1198M12.3142 49.6898C12.3142 49.6898 20.9234 41.4111 22.1185 38.9564C23.3145 36.5035 24.3254 34.4942 21.0503 38.3272C17.7751 42.1602 15.6914 44.8023 15.012 45.4754C14.3325 46.1485 12.7895 47.9898 12.7895 47.9898M17.6334 52.6629C19.4398 51.7843 23.939 49.6199 25.8126 48.9275C28.1856 48.0507 31.5752 46.584 33.3313 46.295C35.0874 46.0059 39.0746 45.4938 34.5925 47.0612C30.1115 48.6303 25.9371 50.2186 24.4719 50.8129C23.9567 51.0215 23.3919 51.3856 22.8515 51.7362M22.8515 51.7362C21.8579 52.381 20.9534 52.9786 20.6098 52.4701C20.4277 52.201 21.4131 51.9564 22.8515 51.7362ZM22.8515 51.7362C25.6011 51.314 30.0078 50.9826 31.0828 50.7449C32.7203 50.3839 37.8574 49.4975 39.635 49.3142C41.4126 49.1308 43.9715 48.8353 43.9715 48.8353C43.9715 48.8353 48.4677 49.0664 43.9909 50.1978C39.5128 51.329 27.7286 52.664 27.7286 52.664L25.2469 53.2298L25.2453 53.231M26.2004 39.4685C27.2199 37.2258 29.0164 33.158 30.7426 28.6943C33.3523 21.9412 32.6909 23.1535 34.3041 19.3836C35.9157 15.6149 35.5236 18.6858 35.1763 19.6778C34.8293 20.6684 33.9914 23.737 33.2985 25.7199C32.9239 26.789 31.7246 29.712 30.4584 32.772M26.2004 39.4685C26.1417 39.6731 26.079 39.89 26.0127 40.1236C24.728 44.6471 24.2594 46.8267 24.2594 46.8267C24.2594 46.8267 26.1965 45.9015 29.6486 41.0396C33.0997 36.1761 33.9416 34.1303 34.4253 33.1207C34.9103 32.1115 36.0098 28.0316 33.5248 32.3348C31.0401 36.6366 28.916 39.5722 27.9168 40.6982C27.5914 41.065 27.1476 41.5646 26.7188 42.0879M26.2004 39.4685C27.2899 35.7036 27.2734 36.4908 29.0886 30.996C31.0026 25.2033 28.4477 29.8314 28.0263 30.757C27.6035 31.6823 25.8045 36.5287 24.8295 40.4406C24.0332 43.64 23.351 47.131 23.1294 48.2989M30.4584 32.772C30.4581 32.7734 30.4578 32.7748 30.4578 32.7748M30.4584 32.772C31.2081 31.9027 32.308 30.5143 33.2219 28.9188C34.7726 26.2124 35.8287 23.2762 38.2438 19.2979C40.659 15.3196 39.4455 18.8885 39.0663 19.8236C38.687 20.7587 34.9802 28.6756 32.5453 32.0661C31.1336 34.032 29.895 35.3176 29.1023 36.05M30.4584 32.772C30.4584 32.772 30.4565 32.7745 30.4578 32.7748M30.4578 32.7748C30.0027 33.8755 29.5383 34.9946 29.1023 36.05M29.1023 36.05L29.102 36.0514C28.4992 37.5092 27.9476 38.847 27.5394 39.8604C27.192 40.7222 26.9283 41.4626 26.7188 42.0879M26.7188 42.0879C26.0128 44.2126 25.9505 45.007 25.4627 44.6706C25.0144 44.3622 25.8327 43.1736 26.7188 42.0879ZM30.3045 44.3347C31.3751 44.2423 33.2707 44.0709 35.2321 43.8558L35.2333 43.8561M35.2333 43.8561C36.8568 43.6791 38.5229 43.4721 39.8014 43.254C39.8014 43.254 39.8014 43.254 39.8027 43.2542M35.2333 43.8561C37.0238 44.3175 40.9061 45.1969 45.7399 45.5843C52.4433 46.1205 56.0315 43.5245 56.5893 43.2115C57.1468 42.8998 58.3083 41.8483 56.1666 42.4848C54.0236 43.121 52.6229 44.0382 47.9427 44.0464C44.5562 44.052 41.3298 43.5379 39.8027 43.2542M39.8027 43.2542C40.1714 43.191 40.507 43.1262 40.8008 43.0622C43.9801 42.3683 54.1686 38.9242 55.8859 38.1923C57.6032 37.4603 61.5453 34.4586 55.367 36.6662C49.1874 38.8735 45.9838 39.8865 44.903 40.3568C44.6506 40.4651 44.0036 40.6134 43.1638 40.7855M43.1638 40.7855C41.8414 41.0581 40.0435 41.3919 38.5755 41.7311M43.1638 40.7855C45.8371 39.1723 51.0869 36.0409 54.5598 34.1996C59.3891 31.6403 57.3578 31.1335 53.6411 32.8746C50.886 34.1639 42.7904 39.418 38.5755 41.7311M38.5755 41.7311C36.9766 42.0994 35.7662 42.4746 35.9724 42.7871C36.106 42.9882 37.1046 42.539 38.5755 41.7311ZM35.6581 40.9825C35.861 39.7081 36.2793 37.3886 36.8747 35.6162C37.7409 33.0393 40.8919 22.322 42.2944 19.1144C43.697 15.9067 44.489 14.9154 43.3145 19.3439C42.14 23.7724 39.8112 30.248 39.2757 32.1216C38.7393 33.9935 37.9193 36.3863 37.9193 36.3863C37.9193 36.3863 46.6613 22.8454 47.1486 22.0311C47.636 21.2168 51.6986 16.8812 47.6908 23.3679C43.684 29.8563 41.3288 33.5557 39.5129 36.4043C38.7061 37.67 38.0278 38.8302 37.5222 39.7296M48.1925 31.3328C48.5869 28.3574 49.6914 20.3957 50.7306 16.5654C52.0216 11.8006 53.7438 6.69427 53.9478 6.15686C54.1531 5.61974 56.5482 1.7349 54.8038 6.73834C53.0595 11.7418 51.6963 14.9846 50.6772 20.4421C50.0055 24.0467 49.5372 28.0142 49.2962 30.2946M50.2904 29.3167C51.249 29.6391 53.7181 30.316 57.0906 30.1012C61.4722 29.824 67.3305 28.9055 70.6277 28.2863C73.9249 27.6672 74.3407 26.35 69.8913 27.1485C65.4422 27.9455 60.7536 28.3978 58.7015 28.6173C56.6497 28.8354 54.2962 28.7926 53.2362 28.7486C52.5534 28.7207 51.7014 28.5319 51.1813 28.4017C51.6357 26.4938 56.0024 11.5297 57.9942 7.65065C59.9873 3.77184 59.439 6.32232 59.134 7.3238C58.8304 8.32417 57.5273 12.31 55.9203 16.4686C54.3131 20.6287 53.0418 25.3015 52.9743 25.8213C52.9408 26.0769 52.9876 26.1708 53.2043 26.1479C53.4258 26.1276 53.825 25.985 54.4998 25.7757C55.057 25.6029 55.9592 25.3147 57.0294 24.9561M57.0294 24.9561C58.5153 24.4586 60.3225 23.8258 61.9658 23.1766C64.7905 22.0623 68.3414 20.6743 72.435 17.8032C76.5286 14.9321 74.9279 17.1975 73.0834 18.7268C71.239 20.2561 69.1276 21.5807 65.2963 23.2316C61.465 24.8826 56.3746 26.5865 54.6428 26.9745C53.7769 27.1685 52.8649 27.2777 52.1655 27.3396M57.0294 24.9561C58.1747 23.8674 60.0805 22.1092 61.5342 21.0387C63.7585 19.4004 67.205 17.2579 69.5414 15.3042C71.8766 13.3502 74.1221 10.1612 74.4153 9.83834C74.7072 9.51516 75.9495 6.63548 73.5049 9.09843C71.0588 11.5625 71.2809 11.5642 68.5494 14.1088C66.6772 15.8541 62.3158 19.086 58.7828 21.5248M54.7648 24.1629C55.7159 23.5977 57.1616 22.6453 58.7828 21.5248M58.7828 21.5248C59.964 20.2322 61.4347 18.4404 62.6666 16.3946C65.1791 12.2189 67.5827 7.62114 69.5514 3.23248C71.5201 -1.15619 68.7169 2.13977 68.2757 2.94541C67.8357 3.75135 66.3271 7.24065 63.5161 12.4427C61.9504 15.3373 59.5234 17.8057 57.8733 19.5278M57.8733 19.5278C57.486 21.0181 57.1539 22.5442 56.2345 22.0581C55.7374 21.7956 56.5601 20.8989 57.8733 19.5278ZM57.8733 19.5278C57.9585 19.2005 58.0458 18.8752 58.1427 18.5739C58.6818 16.8956 59.6397 14.0981 60.7221 11.8622C61.8044 9.62635 63.1432 7.54465 65.0474 4.27885C66.9528 1.01334 65.0065 2.81067 64.4124 3.50444C63.8174 4.19653 62.4806 5.64565 59.8344 11.3219C57.1883 16.9981 55.3277 22.3364 55.3277 22.3364" stroke="#3DA42D" stroke-width="2" stroke-miterlimit="10"/>
</svg>
