<svg width="48" height="48" viewBox="0 0 48 48" fill="none" xmlns="http://www.w3.org/2000/svg">
<circle cx="24" cy="24" r="24" fill="#036733" fill-opacity="0.07"/>
<circle cx="24" cy="24" r="17" fill="#036733" fill-opacity="0.08"/>
<g clip-path="url(#clip0_370_1108)">
<path d="M25.8009 29.9083L25.8082 29.9134C26.4379 30.3143 27.1854 30.4884 27.9274 30.4069C28.6694 30.3254 29.3613 29.9932 29.889 29.4652L30.3473 29.0069C30.4489 28.9053 30.5295 28.7848 30.5844 28.6522C30.6394 28.5195 30.6677 28.3773 30.6677 28.2337C30.6677 28.0901 30.6394 27.9479 30.5844 27.8152C30.5295 27.6826 30.4489 27.5621 30.3473 27.4605L28.4141 25.5287C28.3126 25.4272 28.192 25.3466 28.0594 25.2916C27.9267 25.2366 27.7845 25.2084 27.6409 25.2084C27.4973 25.2084 27.3551 25.2366 27.2225 25.2916C27.0898 25.3466 26.9693 25.4272 26.8678 25.5287C26.6628 25.7337 26.3848 25.8488 26.095 25.8488C25.8051 25.8488 25.5272 25.7337 25.3222 25.5287L22.231 22.4369C22.0261 22.2319 21.911 21.9539 21.911 21.6641C21.911 21.3742 22.0261 21.0963 22.231 20.8913C22.3326 20.7898 22.4132 20.6692 22.4681 20.5366C22.5231 20.4039 22.5514 20.2617 22.5514 20.1181C22.5514 19.9745 22.5231 19.8323 22.4681 19.6997C22.4132 19.567 22.3326 19.4465 22.231 19.345L20.2985 17.4132C20.0935 17.2083 19.8155 17.0931 19.5257 17.0931C19.2359 17.0931 18.9579 17.2083 18.7529 17.4132L18.2938 17.8715C17.7659 18.3992 17.4339 19.0913 17.3525 19.8332C17.2712 20.5752 17.4454 21.3227 17.8464 21.9523L17.8508 21.9596C19.9685 25.0928 22.6673 27.7911 25.8009 29.9083V29.9083Z" stroke="#036733" stroke-width="1.3" stroke-linecap="round" stroke-linejoin="round"/>
</g>
<defs>
<clipPath id="clip0_370_1108">
<rect width="16" height="16" fill="white" transform="translate(16 16)"/>
</clipPath>
</defs>
</svg>
