<svg width="21" height="21" viewBox="0 0 21 21" fill="none" xmlns="http://www.w3.org/2000/svg">
<g clip-path="url(#clip0_446_2184)">
<path d="M19.75 8.75012V8.74956C19.7477 6.76127 18.9569 4.85505 17.551 3.44912C16.145 2.04318 14.2388 1.25235 12.2505 1.25012H12.25C12.1505 1.25012 12.0551 1.21061 11.9848 1.14028C11.9145 1.06995 11.875 0.974572 11.875 0.875116C11.875 0.775659 11.9145 0.680277 11.9848 0.609951C12.0551 0.539624 12.1505 0.500116 12.25 0.500116V0.000115609L12.2494 0.500115C14.4369 0.502518 16.534 1.37254 18.0808 2.9193C19.6275 4.46606 20.4976 6.56322 20.5 8.75067L21 8.75012H20.5C20.5 8.84958 20.4605 8.94496 20.3901 9.01528C20.3198 9.08561 20.2244 9.12512 20.125 9.12512C20.0255 9.12512 19.9301 9.08561 19.8598 9.01528C19.7895 8.94496 19.75 8.84957 19.75 8.75012ZM17.769 13.3953L18.074 12.9991L17.769 13.3953L17.7691 13.3954L17.7694 13.3956L17.7705 13.3965L17.775 13.4L17.7926 13.4135L17.8594 13.465L18.0982 13.6489C18.296 13.8012 18.5599 14.0045 18.8246 14.2087C19.0894 14.4129 19.3548 14.6178 19.5556 14.7732C19.6561 14.851 19.74 14.9161 19.7995 14.9625L19.868 15.0161L19.8698 15.0176C20.2725 15.4305 20.4982 15.9847 20.4982 16.5621C20.4982 17.1479 20.2659 17.7097 19.8523 18.1244L19.84 18.1367L19.8286 18.1499L19.0479 19.0498C17.4347 20.5815 15.2213 20.7954 12.7951 20.0475C10.3565 19.2959 7.7834 17.5888 5.61773 15.4288C3.45215 13.2689 1.73505 10.697 0.968695 8.25615C0.206141 5.82742 0.40215 3.61031 1.90765 1.99325L2.89445 1.13517L2.90455 1.12638L2.91417 1.11707C3.32881 0.715579 3.88484 0.493477 4.46198 0.498812C5.03111 0.504074 5.57564 0.730093 5.98107 1.12867L5.98314 1.13127L6.03681 1.19977C6.08319 1.25926 6.14832 1.3432 6.22614 1.44372C6.38167 1.64461 6.58666 1.91013 6.79099 2.17503C6.99527 2.43989 7.19872 2.70391 7.35111 2.90174L7.5351 3.14062L7.58659 3.20749L7.60014 3.22509L7.60361 3.2296L7.60449 3.23074L7.60471 3.23103L7.60476 3.2311L8.00098 2.92612L7.60478 3.23112L7.62076 3.25188L7.63882 3.27085C8.03124 3.68311 8.24968 4.23074 8.24875 4.7999C8.24782 5.36907 8.02759 5.91598 7.63382 6.32695L7.61788 6.3436L7.60353 6.36163L6.59028 7.63564L6.40744 7.86553L6.51923 8.13716C7.10504 9.56055 7.96634 10.8542 9.05364 11.9436C10.1409 13.0331 11.4328 13.897 12.855 14.4857L13.127 14.5983L13.3574 14.4151L14.6393 13.3957L14.6573 13.3814L14.6738 13.3656C15.0849 12.9721 15.6317 12.7521 16.2007 12.7513C16.7697 12.7505 17.3171 12.969 17.7292 13.3613L17.7482 13.3793L17.769 13.3953ZM5.99893 1.14642C5.99865 1.14614 5.99836 1.14586 5.99809 1.14558L5.99893 1.14642ZM19.38 15.5913L19.3471 15.5534L19.3072 15.5227L19.0023 15.919L19.3072 15.5227L19.3071 15.5226L19.3068 15.5224L19.3057 15.5215L19.3012 15.5181L19.2837 15.5046L19.2172 15.4535L18.9798 15.2707C18.7831 15.1193 18.5206 14.9171 18.2573 14.7142C17.9939 14.5111 17.7299 14.3075 17.5302 14.1529C17.4302 14.0756 17.3468 14.0109 17.2876 13.9648L17.2195 13.9115L17.2141 13.9071C16.9422 13.6473 16.5804 13.502 16.2037 13.502C15.8252 13.502 15.4618 13.6486 15.1896 13.9107L15.1853 13.9142L15.1282 13.9605C15.0784 14.0007 15.0081 14.0572 14.9239 14.1247C14.7555 14.2597 14.5329 14.4375 14.3109 14.6147C14.0889 14.7919 13.8677 14.9684 13.7019 15.1006L13.5017 15.2601L13.4457 15.3048L13.431 15.3165L13.4272 15.3195L13.4262 15.3203L13.4261 15.3204L13.426 15.3205L13.4259 15.3205C13.375 15.361 13.3144 15.3876 13.2501 15.3976C13.1857 15.4076 13.1198 15.4006 13.059 15.3774L13.0553 15.376C11.3589 14.7444 9.81796 13.7556 8.537 12.4765C7.25604 11.1974 6.26493 9.65799 5.6308 7.96247L5.63098 7.9624L5.62576 7.94954C5.60071 7.88783 5.59254 7.82057 5.6021 7.75466C5.61165 7.68876 5.63859 7.62658 5.68013 7.57454L5.68049 7.57409L5.28936 7.26262L5.6805 7.57407L5.68055 7.57401L5.68074 7.57377L5.6815 7.57281L5.68451 7.56904L5.69627 7.55428L5.74091 7.49823L5.90047 7.29796L6.38621 6.68874C6.56341 6.46666 6.74115 6.2441 6.876 6.07573C6.94348 5.99148 6.99989 5.9212 7.04003 5.87145L7.08623 5.81445L7.08964 5.81031C7.35153 5.53807 7.49812 5.17476 7.49812 4.79643C7.49812 4.41943 7.35256 4.05735 7.09241 3.78543L7.08831 3.7803L7.03522 3.71256C6.98919 3.65354 6.92452 3.57014 6.84721 3.47019C6.69269 3.27045 6.48904 3.00636 6.28604 2.74283C6.08308 2.47936 5.88094 2.21668 5.72954 2.01986L5.54675 1.78219L5.4956 1.71566L5.48213 1.69815L5.47869 1.69366L5.47781 1.69253L5.4776 1.69224L5.47754 1.69217L5.08111 1.99687L5.47752 1.69215L5.44934 1.65548L5.4149 1.6246C5.1369 1.37532 4.77407 1.24182 4.40079 1.25146C4.03367 1.26094 3.68379 1.40818 3.42046 1.66352L2.42552 2.52869L2.39502 2.55521L2.36918 2.58628C0.969343 4.26946 1.04058 6.49365 1.87525 8.67025C2.71243 10.8534 4.35143 13.0993 6.29216 14.9814C8.23292 16.8635 10.5145 18.4196 12.6712 19.1899C14.8129 19.9547 16.9707 19.9844 18.4743 18.5635L18.4923 18.5465L18.5085 18.5278L19.2896 17.6275C19.5585 17.3681 19.7197 17.0163 19.7401 16.6425C19.761 16.2586 19.6319 15.8817 19.38 15.5913ZM17.1988 13.8948C17.1987 13.8947 17.2007 13.8963 17.204 13.8992L17.204 13.8991C17.2005 13.8963 17.1989 13.8949 17.1988 13.8948ZM15.1976 13.904L15.1971 13.9044C15.2007 13.9013 15.2027 13.8997 15.2021 13.9002C15.2018 13.9005 15.2004 13.9017 15.1976 13.904ZM7.09641 5.80209C7.10246 5.79486 7.10135 5.79647 7.096 5.80259L7.09641 5.80209ZM7.10023 3.79523L7.0999 3.79482C7.10587 3.80182 7.10706 3.80366 7.10023 3.79523ZM15.0784 5.92169C14.3283 5.17154 13.3108 4.75012 12.25 4.75012C12.1505 4.75012 12.0551 4.71061 11.9848 4.64028C11.9145 4.56995 11.875 4.47457 11.875 4.37512C11.875 4.27566 11.9145 4.18028 11.9848 4.10995C12.0551 4.03962 12.1505 4.00012 12.25 4.00012C13.5093 4.0015 14.7167 4.50239 15.6072 5.39289C16.4978 6.28351 16.9987 7.49109 17 8.75062L17.5 8.75012H17C17 8.84958 16.9605 8.94496 16.8901 9.01528C16.8198 9.08561 16.7244 9.12512 16.625 9.12512C16.5255 9.12512 16.4301 9.08561 16.3598 9.01528C16.2895 8.94496 16.25 8.84958 16.25 8.75012C16.25 7.68925 15.8285 6.67183 15.0784 5.92169Z" stroke="#036733"/>
</g>
<defs>
<clipPath id="clip0_446_2184">
<rect width="21" height="21" fill="white"/>
</clipPath>
</defs>
</svg>
