<svg width="48" height="48" viewBox="0 0 48 48" fill="none" xmlns="http://www.w3.org/2000/svg">
<circle cx="24" cy="24" r="24" fill="#036733" fill-opacity="0.07"/>
<circle cx="24" cy="24" r="17" fill="#036733" fill-opacity="0.08"/>
<g clip-path="url(#clip0_370_1121)">
<path d="M26.4944 25.2362L24.5425 23.7723V20.7901C24.5425 20.4902 24.3001 20.2479 24.0002 20.2479C23.7004 20.2479 23.458 20.4902 23.458 20.7901V24.0434C23.458 24.2142 23.5383 24.3752 23.6749 24.4772L25.8438 26.1038C25.9373 26.1743 26.0514 26.2124 26.1685 26.2123C26.3339 26.2123 26.4966 26.138 26.6029 25.9948C26.7829 25.7557 26.7341 25.4157 26.4944 25.2362Z" fill="#036733"/>
<path d="M24 17C20.14 17 17 20.14 17 24C17 27.86 20.14 31 24 31C27.86 31 31 27.86 31 24C31 20.14 27.86 17 24 17ZM24 29.9156C20.7386 29.9156 18.0844 27.2614 18.0844 24C18.0844 20.7386 20.7386 18.0844 24 18.0844C27.262 18.0844 29.9156 20.7386 29.9156 24C29.9156 27.2614 27.2614 29.9156 24 29.9156Z" fill="#036733"/>
</g>
<defs>
<clipPath id="clip0_370_1121">
<rect width="14" height="14" fill="white" transform="translate(17 17)"/>
</clipPath>
</defs>
</svg>
