<svg width="48" height="48" viewBox="0 0 48 48" fill="none" xmlns="http://www.w3.org/2000/svg">
<circle cx="24" cy="24" r="24" fill="#036733" fill-opacity="0.07"/>
<circle cx="24" cy="24" r="17" fill="#036733" fill-opacity="0.08"/>
<path d="M30 23.3101C30 28.7027 24.7805 32.0589 23.6915 32.6634C23.6322 32.6997 23.5648 32.7189 23.4963 32.7189C23.4277 32.7189 23.3604 32.6997 23.301 32.6634C22.2195 32.0271 17 28.6867 17 23.3101C17 19.0071 19.4333 15.9926 23.4963 15.9926C27.5592 15.9926 30 19.0071 30 23.3101Z" stroke="#036733" stroke-width="1.5" stroke-linecap="round" stroke-linejoin="round"/>
<path d="M20.2899 22.8806C20.33 23.7643 20.6898 24.5976 21.2945 25.208C21.8993 25.8184 22.7026 26.1589 23.538 26.1589C24.3734 26.1589 25.1768 25.8184 25.7815 25.208C26.3863 24.5976 26.746 23.7643 26.7862 22.8806C26.8073 22.4149 26.7389 21.9494 26.5852 21.5125C26.4316 21.0757 26.1957 20.6766 25.892 20.3391C25.5883 20.0016 25.2231 19.7329 24.8185 19.5494C24.4138 19.3658 23.9782 19.2711 23.538 19.2711C23.0978 19.2711 22.6622 19.3658 22.2576 19.5494C21.8529 19.7329 21.4877 20.0016 21.184 20.3391C20.8803 20.6766 20.6444 21.0757 20.4908 21.5125C20.3371 21.9494 20.2687 22.4149 20.2899 22.8806Z" stroke="#036733" stroke-width="1.5" stroke-linecap="round" stroke-linejoin="round"/>
</svg>
