<svg width="18" height="18" viewBox="0 0 18 18" fill="none" xmlns="http://www.w3.org/2000/svg">
<g clip-path="url(#clip0_703_949)">
<path d="M9.74992 0.750072C9.74992 0.55116 9.82893 0.360395 9.96959 0.219742C10.1102 0.07909 10.301 7.23902e-05 10.4999 7.23902e-05C12.4884 0.00225609 14.3947 0.793134 15.8008 2.19918C17.2068 3.60523 17.9977 5.51162 17.9999 7.50007C17.9999 7.69899 17.9209 7.88975 17.7802 8.0304C17.6396 8.17106 17.4488 8.25007 17.2499 8.25007C17.051 8.25007 16.8602 8.17106 16.7196 8.0304C16.5789 7.88975 16.4999 7.69899 16.4999 7.50007C16.4981 5.90932 15.8654 4.38424 14.7406 3.25941C13.6157 2.13457 12.0907 1.50186 10.4999 1.50007C10.301 1.50007 10.1102 1.42105 9.96959 1.2804C9.82893 1.13975 9.74992 0.948985 9.74992 0.750072ZM10.4999 4.50007C11.2956 4.50007 12.0586 4.81614 12.6212 5.37875C13.1838 5.94136 13.4999 6.70442 13.4999 7.50007C13.4999 7.69899 13.5789 7.88975 13.7196 8.0304C13.8602 8.17106 14.051 8.25007 14.2499 8.25007C14.4488 8.25007 14.6396 8.17106 14.7802 8.0304C14.9209 7.88975 14.9999 7.69899 14.9999 7.50007C14.9987 6.30696 14.5242 5.16306 13.6806 4.31941C12.8369 3.47575 11.693 3.00126 10.4999 3.00007C10.301 3.00007 10.1102 3.07909 9.96959 3.21974C9.82893 3.36039 9.74992 3.55116 9.74992 3.75007C9.74992 3.94899 9.82893 4.13975 9.96959 4.2804C10.1102 4.42105 10.301 4.50007 10.4999 4.50007ZM17.3197 12.5543C17.7543 12.9902 17.9984 13.5806 17.9984 14.1961C17.9984 14.8116 17.7543 15.402 17.3197 15.8378L16.6372 16.6246C10.4947 22.5053 -4.45282 7.56157 1.33718 1.39957L2.19968 0.649572C2.636 0.22708 3.22112 -0.0066408 3.82845 -0.00102648C4.43578 0.00458784 5.01648 0.249086 5.44492 0.679572C5.46817 0.702822 6.85792 2.50807 6.85792 2.50807C7.27029 2.94129 7.49985 3.51677 7.49887 4.11487C7.49789 4.71298 7.26646 5.2877 6.85267 5.71957L5.98417 6.81157C6.46481 7.97941 7.17147 9.04076 8.06355 9.93464C8.95563 10.8285 10.0156 11.5373 11.1824 12.0203L12.2812 11.1466C12.7131 10.7331 13.2877 10.5019 13.8856 10.5011C14.4836 10.5003 15.0588 10.7298 15.4919 11.1421C15.4919 11.1421 17.2964 12.5311 17.3197 12.5543ZM16.2877 13.6448C16.2877 13.6448 14.4929 12.2641 14.4697 12.2408C14.3151 12.0876 14.1064 12.0017 13.8888 12.0017C13.6712 12.0017 13.4624 12.0876 13.3079 12.2408C13.2877 12.2618 11.7749 13.4671 11.7749 13.4671C11.673 13.5482 11.5517 13.6014 11.4229 13.6214C11.2941 13.6414 11.1624 13.6275 11.0407 13.5811C9.52901 13.0183 8.15597 12.1371 7.01455 10.9974C5.87312 9.85764 4.98997 8.4859 4.42492 6.97507C4.37482 6.85166 4.35849 6.71714 4.3776 6.58533C4.39671 6.45351 4.45058 6.32917 4.53367 6.22507C4.53367 6.22507 5.73892 4.71157 5.75917 4.69207C5.91237 4.53756 5.99833 4.32878 5.99833 4.1112C5.99833 3.89361 5.91237 3.68483 5.75917 3.53032C5.73592 3.50782 4.35517 1.71157 4.35517 1.71157C4.19835 1.57095 3.99368 1.49564 3.78311 1.50108C3.57254 1.50652 3.37203 1.59229 3.22267 1.74082L2.36018 2.49082C-1.87132 7.57882 11.0819 19.8136 15.5407 15.6001L16.2239 14.8126C16.384 14.6643 16.4802 14.4595 16.4921 14.2416C16.504 14.0237 16.4307 13.8097 16.2877 13.6448Z" fill="white"/>
</g>
<defs>
<clipPath id="clip0_703_949">
<rect width="18" height="18" fill="white"/>
</clipPath>
</defs>
</svg>
